<?xml version="1.0" encoding="UTF-8"?>
<svg height="128px" viewBox="0 0 128 128" width="128px" xmlns="http://www.w3.org/2000/svg">
    <path d="m 80 112 c 0 8.835938 -7.164062 16 -16 16 s -16 -7.164062 -16 -16" fill="#f7b84e"/>
    <path d="m 80 112 c 0 8.835938 -7.164062 16 -16 16 s -16 -7.164062 -16 -16" fill="#f6b545"/>
    <path d="m 98.71875 79.378906 l -5.578125 -49.140625 c -0.996094 -8.179687 -7.980469 -14.308593 -16.21875 -14.238281 h -27.882813 c -8.242187 -0.070312 -15.222656 6.058594 -16.21875 14.238281 l -5.640624 49.761719 c -0.59375 5.078125 -3.339844 9.660156 -7.539063 12.578125 c -4.792969 3.332031 -7.648437 8.804687 -7.640625 14.640625 v 0.78125 c 0.066406 2.242188 1.914062 4.023438 4.160156 4 h 95.679688 c 2.246094 0.023438 4.09375 -1.757812 4.160156 -4 c -0.019531 -6.210938 -3.269531 -11.960938 -8.578125 -15.179688 l -0.242187 -0.140624 c -4.730469 -2.882813 -7.855469 -7.792969 -8.460938 -13.300782 z m 0 0" fill="#fcd063"/>
    <path d="m 116 108 c -0.019531 -6.210938 -3.269531 -11.960938 -8.578125 -15.179688 l -0.242187 -0.140624 c -4.703126 -2.859376 -7.824219 -7.730469 -8.460938 -13.199219 l -5.578125 -49.242188 c -0.996094 -8.179687 -7.980469 -14.308593 -16.21875 -14.238281 c -3.867187 0.003906 -6.996094 3.140625 -6.992187 7.007812 c 0 0.332032 0.023437 0.664063 0.070312 0.992188 l 8.699219 60.839844 c 1.582031 11.101562 -6.136719 21.378906 -17.238281 22.957031 c -0.953126 0.136719 -1.917969 0.207031 -2.882813 0.203125 h -46.578125 c 0.066406 2.242188 1.914062 4.023438 4.160156 4 h 95.679688 c 2.246094 0.023438 4.09375 -1.757812 4.160156 -4 z m 0 0" fill="#f6b545"/>
    <path d="m 48 112 c 0.003906 1.351562 0.179688 2.695312 0.519531 4 h 11.121094 c 2.210937 0.058594 4.199219 1.371094 5.121094 3.378906 c 1.835937 3.699219 6.324219 5.214844 10.023437 3.378906 c 1.296875 -0.644531 2.378906 -1.652343 3.113282 -2.894531 c 0.695312 -1.214843 1.226562 -2.511719 1.582031 -3.859375 c 0.339843 -1.308594 0.515625 -2.652344 0.519531 -4 h -32 z m 0 0" fill="#f19920"/>
    <path d="m 60 16 v -4 c 0 -2.210938 1.789062 -4 4 -4 s 4 1.789062 4 4 v 4 h 8 v -4 c 0 -6.628906 -5.371094 -12 -12 -12 s -12 5.371094 -12 12 v 4 z m 0 0" fill="#c9d5e3"/>
    <g fill="#b0c4d9">
        <path d="m 60 8 c -2.210938 0 -4 1.789062 -4 4 v 4 h 4 v -4 c 0.007812 -1.421875 0.769531 -2.730469 2 -3.441406 c -0.605469 -0.359375 -1.296875 -0.550782 -2 -0.558594 z m 0 0"/>
        <path d="m 70.71875 2 c -1.207031 0.386719 -1.875 1.683594 -1.488281 2.890625 c 0.140625 0.4375 0.40625 0.824219 0.769531 1.109375 c 2.140625 2.199219 2 2.699219 2 6 v 4 h 4 v -4 c 0.019531 -4.007812 -1.960938 -7.757812 -5.28125 -10 z m 0 0"/>
    </g>
</svg>
