<?xml version="1.0" encoding="UTF-8"?>
<svg xmlns="http://www.w3.org/2000/svg" xmlns:xlink="http://www.w3.org/1999/xlink" width="16px" height="16px" viewBox="0 0 16 16" version="1.1">
<g id="surface1">
<path style=" stroke:none;fill-rule:nonzero;fill:rgb(96.862745%,72.156864%,30.588236%);fill-opacity:1;" d="M 10 14 C 10 15.105469 9.105469 16 8 16 C 6.894531 16 6 15.105469 6 14 "/>
<path style=" stroke:none;fill-rule:nonzero;fill:rgb(96.470588%,70.980394%,27.058825%);fill-opacity:1;" d="M 10 14 C 10 15.105469 9.105469 16 8 16 C 6.894531 16 6 15.105469 6 14 "/>
<path style=" stroke:none;fill-rule:nonzero;fill:rgb(98.823529%,81.568629%,38.82353%);fill-opacity:1;" d="M 12.339844 9.921875 L 11.640625 3.78125 C 11.519531 2.757812 10.644531 1.992188 9.617188 2 L 6.128906 2 C 5.101562 1.992188 4.226562 2.757812 4.101562 3.78125 L 3.398438 10 C 3.324219 10.632812 2.980469 11.207031 2.453125 11.570312 C 1.855469 11.988281 1.5 12.671875 1.5 13.402344 L 1.5 13.5 C 1.507812 13.78125 1.738281 14.003906 2.019531 14 L 13.980469 14 C 14.261719 14.003906 14.492188 13.78125 14.5 13.5 C 14.496094 12.722656 14.089844 12.003906 13.425781 11.601562 L 13.398438 11.585938 C 12.804688 11.226562 12.414062 10.609375 12.339844 9.921875 Z M 12.339844 9.921875 "/>
<path style=" stroke:none;fill-rule:nonzero;fill:rgb(96.470588%,70.980394%,27.058825%);fill-opacity:1;" d="M 14.5 13.5 C 14.496094 12.722656 14.089844 12.003906 13.429688 11.601562 L 13.398438 11.585938 C 12.808594 11.226562 12.417969 10.617188 12.339844 9.933594 L 11.640625 3.78125 C 11.519531 2.757812 10.644531 1.992188 9.617188 2 C 9.132812 2 8.742188 2.390625 8.742188 2.875 C 8.742188 2.917969 8.742188 2.957031 8.75 3 L 9.835938 10.605469 C 10.035156 11.992188 9.070312 13.277344 7.683594 13.472656 C 7.5625 13.492188 7.441406 13.5 7.320312 13.5 L 1.5 13.5 C 1.507812 13.78125 1.738281 14.003906 2.019531 14 L 13.980469 14 C 14.261719 14.003906 14.492188 13.78125 14.5 13.5 Z M 14.5 13.5 "/>
<path style=" stroke:none;fill-rule:nonzero;fill:rgb(94.509804%,60.000002%,12.54902%);fill-opacity:1;" d="M 6 14 C 6 14.167969 6.023438 14.335938 6.066406 14.5 L 7.453125 14.5 C 7.730469 14.507812 7.980469 14.671875 8.09375 14.921875 C 8.324219 15.382812 8.886719 15.574219 9.347656 15.34375 C 9.511719 15.265625 9.644531 15.136719 9.738281 14.984375 C 9.824219 14.832031 9.890625 14.667969 9.933594 14.5 C 9.976562 14.335938 10 14.167969 10 14 Z M 6 14 "/>
<path style=" stroke:none;fill-rule:nonzero;fill:rgb(78.823531%,83.529413%,89.019608%);fill-opacity:1;" d="M 7.5 2 L 7.5 1.5 C 7.5 1.222656 7.722656 1 8 1 C 8.277344 1 8.5 1.222656 8.5 1.5 L 8.5 2 L 9.5 2 L 9.5 1.5 C 9.5 0.671875 8.828125 0 8 0 C 7.171875 0 6.5 0.671875 6.5 1.5 L 6.5 2 Z M 7.5 2 "/>
<path style=" stroke:none;fill-rule:nonzero;fill:rgb(69.01961%,76.862746%,85.09804%);fill-opacity:1;" d="M 7.5 1 C 7.222656 1 7 1.222656 7 1.5 L 7 2 L 7.5 2 L 7.5 1.5 C 7.5 1.320312 7.597656 1.160156 7.75 1.070312 C 7.675781 1.023438 7.585938 1 7.5 1 Z M 7.5 1 "/>
<path style=" stroke:none;fill-rule:nonzero;fill:rgb(69.01961%,76.862746%,85.09804%);fill-opacity:1;" d="M 8.839844 0.25 C 8.6875 0.296875 8.605469 0.460938 8.652344 0.609375 C 8.671875 0.664062 8.703125 0.714844 8.75 0.75 C 9.015625 1.023438 9 1.085938 9 1.5 L 9 2 L 9.5 2 L 9.5 1.5 C 9.503906 1 9.253906 0.53125 8.839844 0.25 Z M 8.839844 0.25 "/>
</g>
</svg>
