<?xml version="1.0" encoding="UTF-8"?>
<svg xmlns="http://www.w3.org/2000/svg" xmlns:xlink="http://www.w3.org/1999/xlink" width="24px" height="24px" viewBox="0 0 24 24" version="1.1">
<g id="surface1">
<path style=" stroke:none;fill-rule:nonzero;fill:rgb(96.862745%,72.156864%,30.588236%);fill-opacity:1;" d="M 15 21 C 15 22.65625 13.65625 24 12 24 C 10.34375 24 9 22.65625 9 21 "/>
<path style=" stroke:none;fill-rule:nonzero;fill:rgb(96.470588%,70.980394%,27.058825%);fill-opacity:1;" d="M 15 21 C 15 22.65625 13.65625 24 12 24 C 10.34375 24 9 22.65625 9 21 "/>
<path style=" stroke:none;fill-rule:nonzero;fill:rgb(98.823529%,81.568629%,38.82353%);fill-opacity:1;" d="M 18.507812 14.882812 L 17.464844 5.667969 C 17.277344 4.136719 15.96875 2.988281 14.421875 3 L 9.195312 3 C 7.648438 2.988281 6.339844 4.136719 6.152344 5.667969 L 5.097656 15 C 4.984375 15.953125 4.46875 16.8125 3.683594 17.359375 C 2.785156 17.984375 2.25 19.007812 2.25 20.101562 L 2.25 20.25 C 2.261719 20.671875 2.609375 21.003906 3.03125 21 L 20.96875 21 C 21.390625 21.003906 21.738281 20.671875 21.75 20.25 C 21.746094 19.085938 21.136719 18.007812 20.140625 17.402344 L 20.097656 17.378906 C 19.210938 16.835938 18.625 15.917969 18.507812 14.882812 Z M 18.507812 14.882812 "/>
<path style=" stroke:none;fill-rule:nonzero;fill:rgb(96.470588%,70.980394%,27.058825%);fill-opacity:1;" d="M 21.75 20.25 C 21.746094 19.085938 21.136719 18.007812 20.140625 17.402344 L 20.097656 17.378906 C 19.214844 16.839844 18.628906 15.929688 18.507812 14.902344 L 17.464844 5.667969 C 17.277344 4.136719 15.96875 2.988281 14.421875 3 C 13.699219 3 13.109375 3.589844 13.113281 4.3125 C 13.113281 4.375 13.117188 4.4375 13.125 4.5 L 14.757812 15.90625 C 15.054688 17.988281 13.605469 19.914062 11.523438 20.210938 C 11.34375 20.238281 11.164062 20.25 10.984375 20.25 L 2.25 20.25 C 2.261719 20.671875 2.609375 21.003906 3.03125 21 L 20.96875 21 C 21.390625 21.003906 21.738281 20.671875 21.75 20.25 Z M 21.75 20.25 "/>
<path style=" stroke:none;fill-rule:nonzero;fill:rgb(94.509804%,60.000002%,12.54902%);fill-opacity:1;" d="M 9 21 C 9 21.253906 9.035156 21.503906 9.097656 21.75 L 11.183594 21.75 C 11.597656 21.761719 11.96875 22.007812 12.144531 22.382812 C 12.488281 23.078125 13.328125 23.359375 14.023438 23.015625 C 14.265625 22.894531 14.46875 22.707031 14.605469 22.472656 C 14.734375 22.246094 14.835938 22.003906 14.902344 21.75 C 14.964844 21.503906 15 21.253906 15 21 Z M 9 21 "/>
<path style=" stroke:none;fill-rule:nonzero;fill:rgb(78.823531%,83.529413%,89.019608%);fill-opacity:1;" d="M 11.25 3 L 11.25 2.25 C 11.25 1.835938 11.585938 1.5 12 1.5 C 12.414062 1.5 12.75 1.835938 12.75 2.25 L 12.75 3 L 14.25 3 L 14.25 2.25 C 14.25 1.007812 13.242188 0 12 0 C 10.757812 0 9.75 1.007812 9.75 2.25 L 9.75 3 Z M 11.25 3 "/>
<path style=" stroke:none;fill-rule:nonzero;fill:rgb(69.01961%,76.862746%,85.09804%);fill-opacity:1;" d="M 11.25 1.5 C 10.835938 1.5 10.5 1.835938 10.5 2.25 L 10.5 3 L 11.25 3 L 11.25 2.25 C 11.25 1.984375 11.394531 1.738281 11.625 1.605469 C 11.511719 1.539062 11.382812 1.5 11.25 1.5 Z M 11.25 1.5 "/>
<path style=" stroke:none;fill-rule:nonzero;fill:rgb(69.01961%,76.862746%,85.09804%);fill-opacity:1;" d="M 13.257812 0.375 C 13.035156 0.449219 12.90625 0.691406 12.980469 0.917969 C 13.007812 1 13.058594 1.070312 13.125 1.125 C 13.527344 1.539062 13.5 1.632812 13.5 2.25 L 13.5 3 L 14.25 3 L 14.25 2.25 C 14.253906 1.5 13.882812 0.796875 13.257812 0.375 Z M 13.257812 0.375 "/>
</g>
</svg>
