<?xml version="1.0" encoding="UTF-8"?>
<svg xmlns="http://www.w3.org/2000/svg" xmlns:xlink="http://www.w3.org/1999/xlink" width="32px" height="32px" viewBox="0 0 32 32" version="1.1">
<g id="surface1">
<path style=" stroke:none;fill-rule:nonzero;fill:rgb(96.862745%,72.156864%,30.588236%);fill-opacity:1;" d="M 20 28 C 20 30.210938 18.210938 32 16 32 C 13.789062 32 12 30.210938 12 28 "/>
<path style=" stroke:none;fill-rule:nonzero;fill:rgb(96.470588%,70.980394%,27.058825%);fill-opacity:1;" d="M 20 28 C 20 30.210938 18.210938 32 16 32 C 13.789062 32 12 30.210938 12 28 "/>
<path style=" stroke:none;fill-rule:nonzero;fill:rgb(98.823529%,81.568629%,38.82353%);fill-opacity:1;" d="M 24.679688 19.84375 L 23.285156 7.558594 C 23.035156 5.515625 21.289062 3.984375 19.230469 4 L 12.257812 4 C 10.199219 3.984375 8.453125 5.515625 8.203125 7.558594 L 6.796875 20 C 6.648438 21.269531 5.960938 22.414062 4.910156 23.144531 C 3.710938 23.976562 3 25.34375 3 26.804688 L 3 27 C 3.015625 27.5625 3.476562 28.007812 4.039062 28 L 27.960938 28 C 28.523438 28.007812 28.984375 27.5625 29 27 C 28.996094 25.445312 28.183594 24.007812 26.855469 23.203125 L 26.796875 23.171875 C 25.613281 22.449219 24.832031 21.222656 24.679688 19.84375 Z M 24.679688 19.84375 "/>
<path style=" stroke:none;fill-rule:nonzero;fill:rgb(96.470588%,70.980394%,27.058825%);fill-opacity:1;" d="M 29 27 C 28.996094 25.445312 28.183594 24.007812 26.855469 23.203125 L 26.796875 23.171875 C 25.617188 22.453125 24.839844 21.238281 24.679688 19.871094 L 23.285156 7.558594 C 23.035156 5.515625 21.289062 3.984375 19.230469 4 C 18.265625 4 17.480469 4.785156 17.484375 5.75 C 17.484375 5.835938 17.488281 5.917969 17.5 6 L 19.675781 21.210938 C 20.070312 23.984375 18.140625 26.554688 15.367188 26.949219 C 15.125 26.984375 14.886719 27 14.644531 27 L 3 27 C 3.015625 27.5625 3.476562 28.007812 4.039062 28 L 27.960938 28 C 28.523438 28.007812 28.984375 27.5625 29 27 Z M 29 27 "/>
<path style=" stroke:none;fill-rule:nonzero;fill:rgb(94.509804%,60.000002%,12.54902%);fill-opacity:1;" d="M 12 28 C 12 28.335938 12.046875 28.671875 12.128906 29 L 14.910156 29 C 15.460938 29.015625 15.960938 29.34375 16.191406 29.84375 C 16.648438 30.769531 17.773438 31.148438 18.695312 30.6875 C 19.019531 30.527344 19.289062 30.277344 19.476562 29.964844 C 19.648438 29.664062 19.78125 29.335938 19.871094 29 C 19.953125 28.671875 20 28.335938 20 28 Z M 12 28 "/>
<path style=" stroke:none;fill-rule:nonzero;fill:rgb(78.823531%,83.529413%,89.019608%);fill-opacity:1;" d="M 15 4 L 15 3 C 15 2.445312 15.445312 2 16 2 C 16.554688 2 17 2.445312 17 3 L 17 4 L 19 4 L 19 3 C 19 1.34375 17.65625 0 16 0 C 14.34375 0 13 1.34375 13 3 L 13 4 Z M 15 4 "/>
<path style=" stroke:none;fill-rule:nonzero;fill:rgb(69.01961%,76.862746%,85.09804%);fill-opacity:1;" d="M 15 2 C 14.445312 2 14 2.445312 14 3 L 14 4 L 15 4 L 15 3 C 15 2.644531 15.191406 2.316406 15.5 2.140625 C 15.347656 2.050781 15.175781 2 15 2 Z M 15 2 "/>
<path style=" stroke:none;fill-rule:nonzero;fill:rgb(69.01961%,76.862746%,85.09804%);fill-opacity:1;" d="M 17.679688 0.5 C 17.378906 0.597656 17.210938 0.921875 17.308594 1.222656 C 17.34375 1.332031 17.410156 1.429688 17.5 1.5 C 18.035156 2.050781 18 2.175781 18 3 L 18 4 L 19 4 L 19 3 C 19.003906 2 18.507812 1.0625 17.679688 0.5 Z M 17.679688 0.5 "/>
</g>
</svg>
