<?xml version="1.0" encoding="UTF-8"?>
<svg xmlns="http://www.w3.org/2000/svg" xmlns:xlink="http://www.w3.org/1999/xlink" width="48px" height="48px" viewBox="0 0 48 48" version="1.1">
<g id="surface1">
<path style=" stroke:none;fill-rule:nonzero;fill:rgb(96.862745%,72.156864%,30.588236%);fill-opacity:1;" d="M 30 42 C 30 45.3125 27.3125 48 24 48 C 20.6875 48 18 45.3125 18 42 "/>
<path style=" stroke:none;fill-rule:nonzero;fill:rgb(96.470588%,70.980394%,27.058825%);fill-opacity:1;" d="M 30 42 C 30 45.3125 27.3125 48 24 48 C 20.6875 48 18 45.3125 18 42 "/>
<path style=" stroke:none;fill-rule:nonzero;fill:rgb(98.823529%,81.568629%,38.82353%);fill-opacity:1;" d="M 37.019531 29.765625 L 34.929688 11.339844 C 34.554688 8.273438 31.933594 5.972656 28.84375 6 L 18.390625 6 C 15.296875 5.972656 12.679688 8.273438 12.308594 11.339844 L 10.191406 30 C 9.96875 31.90625 8.941406 33.621094 7.367188 34.71875 C 5.566406 35.964844 4.496094 38.019531 4.5 40.207031 L 4.5 40.5 C 4.523438 41.339844 5.21875 42.007812 6.058594 42 L 41.941406 42 C 42.78125 42.007812 43.476562 41.339844 43.5 40.5 C 43.492188 38.171875 42.273438 36.015625 40.28125 34.808594 L 40.191406 34.753906 C 38.417969 33.671875 37.246094 31.832031 37.019531 29.765625 Z M 37.019531 29.765625 "/>
<path style=" stroke:none;fill-rule:nonzero;fill:rgb(96.470588%,70.980394%,27.058825%);fill-opacity:1;" d="M 43.5 40.5 C 43.492188 38.171875 42.273438 36.015625 40.28125 34.808594 L 40.191406 34.753906 C 38.429688 33.683594 37.257812 31.855469 37.019531 29.804688 L 34.929688 11.339844 C 34.554688 8.273438 31.933594 5.972656 28.84375 6 C 27.394531 6 26.222656 7.175781 26.222656 8.628906 C 26.222656 8.753906 26.234375 8.875 26.25 9 L 29.511719 31.816406 C 30.105469 35.976562 27.210938 39.832031 23.046875 40.421875 C 22.691406 40.476562 22.328125 40.5 21.96875 40.5 L 4.5 40.5 C 4.523438 41.339844 5.21875 42.007812 6.058594 42 L 41.941406 42 C 42.78125 42.007812 43.476562 41.339844 43.5 40.5 Z M 43.5 40.5 "/>
<path style=" stroke:none;fill-rule:nonzero;fill:rgb(94.509804%,60.000002%,12.54902%);fill-opacity:1;" d="M 18 42 C 18 42.507812 18.066406 43.011719 18.195312 43.5 L 22.367188 43.5 C 23.195312 43.523438 23.941406 44.015625 24.285156 44.765625 C 24.972656 46.15625 26.65625 46.722656 28.042969 46.035156 C 28.53125 45.792969 28.9375 45.414062 29.210938 44.949219 C 29.472656 44.492188 29.671875 44.007812 29.804688 43.5 C 29.933594 43.011719 30 42.507812 30 42 Z M 18 42 "/>
<path style=" stroke:none;fill-rule:nonzero;fill:rgb(78.823531%,83.529413%,89.019608%);fill-opacity:1;" d="M 22.5 6 L 22.5 4.5 C 22.5 3.671875 23.171875 3 24 3 C 24.828125 3 25.5 3.671875 25.5 4.5 L 25.5 6 L 28.5 6 L 28.5 4.5 C 28.5 2.015625 26.484375 0 24 0 C 21.515625 0 19.5 2.015625 19.5 4.5 L 19.5 6 Z M 22.5 6 "/>
<path style=" stroke:none;fill-rule:nonzero;fill:rgb(69.01961%,76.862746%,85.09804%);fill-opacity:1;" d="M 22.5 3 C 21.671875 3 21 3.671875 21 4.5 L 21 6 L 22.5 6 L 22.5 4.5 C 22.503906 3.96875 22.789062 3.476562 23.25 3.210938 C 23.023438 3.074219 22.765625 3.003906 22.5 3 Z M 22.5 3 "/>
<path style=" stroke:none;fill-rule:nonzero;fill:rgb(69.01961%,76.862746%,85.09804%);fill-opacity:1;" d="M 26.519531 0.75 C 26.066406 0.894531 25.816406 1.382812 25.960938 1.835938 C 26.015625 2 26.113281 2.144531 26.25 2.25 C 27.054688 3.074219 27 3.261719 27 4.5 L 27 6 L 28.5 6 L 28.5 4.5 C 28.507812 2.996094 27.765625 1.589844 26.519531 0.75 Z M 26.519531 0.75 "/>
</g>
</svg>
