<?xml version="1.0" encoding="UTF-8"?>
<svg xmlns="http://www.w3.org/2000/svg" xmlns:xlink="http://www.w3.org/1999/xlink" width="64px" height="64px" viewBox="0 0 64 64" version="1.1">
<g id="surface1">
<path style=" stroke:none;fill-rule:nonzero;fill:rgb(96.862745%,72.156864%,30.588236%);fill-opacity:1;" d="M 40 56 C 40 60.417969 36.417969 64 32 64 C 27.582031 64 24 60.417969 24 56 "/>
<path style=" stroke:none;fill-rule:nonzero;fill:rgb(96.470588%,70.980394%,27.058825%);fill-opacity:1;" d="M 40 56 C 40 60.417969 36.417969 64 32 64 C 27.582031 64 24 60.417969 24 56 "/>
<path style=" stroke:none;fill-rule:nonzero;fill:rgb(98.823529%,81.568629%,38.82353%);fill-opacity:1;" d="M 49.359375 39.6875 L 46.570312 15.117188 C 46.070312 11.03125 42.578125 7.964844 38.460938 8 L 24.519531 8 C 20.398438 7.964844 16.90625 11.03125 16.410156 15.117188 L 13.589844 40 C 13.292969 42.539062 11.921875 44.828125 9.820312 46.289062 C 7.421875 47.953125 5.996094 50.691406 6 53.609375 L 6 54 C 6.03125 55.121094 6.957031 56.011719 8.078125 56 L 55.921875 56 C 57.042969 56.011719 57.96875 55.121094 58 54 C 57.992188 50.894531 56.367188 48.019531 53.710938 46.410156 L 53.589844 46.339844 C 51.226562 44.898438 49.664062 42.445312 49.359375 39.6875 Z M 49.359375 39.6875 "/>
<path style=" stroke:none;fill-rule:nonzero;fill:rgb(96.470588%,70.980394%,27.058825%);fill-opacity:1;" d="M 58 54 C 57.992188 50.894531 56.367188 48.019531 53.710938 46.410156 L 53.589844 46.339844 C 51.238281 44.910156 49.679688 42.476562 49.359375 39.742188 L 46.570312 15.117188 C 46.070312 11.03125 42.578125 7.964844 38.460938 8 C 36.527344 8 34.960938 9.570312 34.964844 11.503906 C 34.964844 11.671875 34.976562 11.835938 35 12 L 39.351562 42.421875 C 40.140625 47.96875 36.28125 53.109375 30.730469 53.898438 C 30.253906 53.96875 29.773438 54 29.289062 54 L 6 54 C 6.03125 55.121094 6.957031 56.011719 8.078125 56 L 55.921875 56 C 57.042969 56.011719 57.96875 55.121094 58 54 Z M 58 54 "/>
<path style=" stroke:none;fill-rule:nonzero;fill:rgb(94.509804%,60.000002%,12.54902%);fill-opacity:1;" d="M 24 56 C 24 56.675781 24.089844 57.347656 24.257812 58 L 29.820312 58 C 30.925781 58.03125 31.921875 58.6875 32.382812 59.6875 C 33.296875 61.539062 35.542969 62.296875 37.390625 61.378906 C 38.039062 61.054688 38.582031 60.554688 38.949219 59.929688 C 39.296875 59.324219 39.5625 58.675781 39.742188 58 C 39.910156 57.347656 40 56.675781 40 56 Z M 24 56 "/>
<path style=" stroke:none;fill-rule:nonzero;fill:rgb(78.823531%,83.529413%,89.019608%);fill-opacity:1;" d="M 30 8 L 30 6 C 30 4.894531 30.894531 4 32 4 C 33.105469 4 34 4.894531 34 6 L 34 8 L 38 8 L 38 6 C 38 2.6875 35.3125 0 32 0 C 28.6875 0 26 2.6875 26 6 L 26 8 Z M 30 8 "/>
<path style=" stroke:none;fill-rule:nonzero;fill:rgb(69.01961%,76.862746%,85.09804%);fill-opacity:1;" d="M 30 4 C 28.894531 4 28 4.894531 28 6 L 28 8 L 30 8 L 30 6 C 30.003906 5.289062 30.382812 4.632812 31 4.28125 C 30.695312 4.101562 30.351562 4.003906 30 4 Z M 30 4 "/>
<path style=" stroke:none;fill-rule:nonzero;fill:rgb(69.01961%,76.862746%,85.09804%);fill-opacity:1;" d="M 35.359375 1 C 34.757812 1.195312 34.421875 1.84375 34.617188 2.445312 C 34.6875 2.664062 34.820312 2.859375 35 3 C 36.070312 4.101562 36 4.351562 36 6 L 36 8 L 38 8 L 38 6 C 38.007812 3.996094 37.019531 2.121094 35.359375 1 Z M 35.359375 1 "/>
</g>
</svg>
